<?xml version="1.0" encoding="utf-8"?>
<!-- Generator: Adobe Illustrator 19.0.0, SVG Export Plug-In . SVG Version: 6.00 Build 0)  -->
<svg version="1.1" id="Layer_1" xmlns="http://www.w3.org/2000/svg" xmlns:xlink="http://www.w3.org/1999/xlink" x="0px" y="0px"
	 viewBox="-272 257 246.7 100" style="enable-background:new -272 257 246.7 100;" xml:space="preserve">
<style type="text/css">
	.st0{fill:#2BDE73;}
</style>
<g id="XMLID_1_">
	<g id="XMLID_3_">
		<path id="XMLID_5_" class="st0" d="M-239.9,308.1c8.5,4.4,19.2-3,18.8-14c-0.2-5.7-3.6-12.9-14.5-12.6
			c-12.6,0.4-19,10.2-18.7,17.2c0.1,3.4,1.9,6.5,1.9,6.5l-7.3,5.9c0,0-3.7-5.2-3.9-11.9c-0.5-10.2,7.2-25.7,27.7-26.4
			c17.4-0.6,25.2,10.2,25.6,20.9c0.5,14.8-12.9,28.9-32.3,21.7l-3.6,10.1l-12,15.7l1.6-17.6l10.2-28.3c1.8-5,6.6-10.5,13.7-10.8
			l2.3,6c0,0-3.6,1.6-5.5,6.8L-239.9,308.1z"/>
	</g>
	<g id="XMLID_2_">
		<path id="XMLID_7_" class="st0" d="M-196,296.6l-7.4,24.1c-0.9,3.1-0.5,5.5,2.3,5.5c4,0,7.8-5.3,11.8-13.4c1.3,0.1,3.3,1.1,4,2
			c-5,11-11.3,18.7-19.9,18.7c-8.3,0-10.4-6.9-7.9-15.1l6.7-21.7h10.4V296.6z M-198.2,280.3c3.5,0,6.1,2.8,6.1,6.2s-2.6,6-6.1,6
			c-3.4,0-6-2.6-6-6S-201.6,280.3-198.2,280.3z"/>
		<path id="XMLID_21_" class="st0" d="M-184.5,296.6h10.4l-1.4,4.6c3-3.3,6.3-5.3,10.2-5.3c8.1,0,10.3,7.5,8,15.1l-3.2,10.4
			c-0.8,2.4-0.9,4.7,1.3,4.7c3.2,0,7.3-5.5,11.2-13.4c1.3,0.1,3.3,1.1,4,2c-4.9,10.7-11.5,18.7-19.6,18.7c-8.3,0-8.5-8.2-6.7-14.2
			l2.5-7.9c1.1-3.6,0.7-6.7-2.9-6.7c-2.8,0-5.2,2.1-7.2,4.6l-7.2,23.6h-10.5L-184.5,296.6z"/>
		<path id="XMLID_23_" class="st0" d="M-143.4,296.6h10.4l-1.4,4.6c3-3.3,6.3-5.3,10.2-5.3c8.1,0,10.3,7.5,8,15.1l-3.2,10.4
			c-0.8,2.4-0.9,4.7,1.3,4.7c3.2,0,7.3-5.5,11.2-13.4c1.3,0.1,3.3,1.1,4,2c-4.9,10.7-11.5,18.7-19.6,18.7c-8.3,0-8.5-8.2-6.7-14.2
			l2.5-7.9c1.1-3.6,0.7-6.7-2.9-6.7c-2.8,0-5.2,2.1-7.2,4.6l-7.2,23.6h-10.4L-143.4,296.6z"/>
		<path id="XMLID_25_" class="st0" d="M-66.5,314.8c-4.9,10.7-13,18.9-25.2,18.9c-10.5,0-17.2-6-17.2-15.8
			c0-10.7,8.1-21.9,20.3-21.9c7.9,0,12.8,4.7,12.8,10.2c0,6.2-6,14.1-21.8,13.6c0.9,4.3,4.2,6.7,9.2,6.7c6.8,0,13.6-4.9,17.9-13.7
			C-69.2,312.9-67.2,314-66.5,314.8z M-97.7,315c8.7-0.1,12.6-4,12.6-7.1c0-1.6-1-3.1-3.6-3.1C-93.2,304.8-96.9,309.4-97.7,315z"/>
		<path id="XMLID_28_" class="st0" d="M-70.5,312.8c1.5-3.3,3-6.9,4.3-10.6c-1.5-1.4-2.5-3.2-2.5-5.5c0-3.6,2.8-6.4,6.2-6.4
			c2.6,0,4.5,1.3,5.5,3.1l-2.1,5.5l1.9,0.7c7.7,3.1,11.9,6,9.4,14.3l-2.3,7.5c-0.8,2.4-0.9,4.7,1.3,4.7c3.2,0,7.3-5.5,11.2-13.4
			c1.3,0.1,3.3,1.1,4,2c-4.9,10.7-11.5,18.7-19.6,18.7c-8.3,0-8.5-8.2-6.7-14.2l2.1-6.6c1.1-3.8,1.3-5.6-1.5-6.7l-3.1-1.3
			c-1.1,3.4-2.5,6.9-4,10.2C-67.9,314.7-69.9,313.7-70.5,312.8z"/>
	</g>
</g>
</svg>
