<?xml version="1.0" standalone="no"?>
<!DOCTYPE svg PUBLIC "-//W3C//DTD SVG 20010904//EN"
 "http://www.w3.org/TR/2001/REC-SVG-20010904/DTD/svg10.dtd">
<svg version="1.0" xmlns="http://www.w3.org/2000/svg"
 width="625.000000pt" height="625.000000pt" viewBox="0 0 625.000000 625.000000"
 preserveAspectRatio="xMidYMid meet">
<metadata>
Created by potrace 1.11, written by Peter Selinger 2001-2013
</metadata>
<g transform="translate(0.000000,625.000000) scale(0.100000,-0.100000)"
fill="#000000" stroke="none">
<path d="M2845 6239 c-1218 -107 -2273 -932 -2674 -2093 -563 -1630 303 -3412
1933 -3975 1630 -563 3412 303 3975 1933 496 1437 -111 3016 -1445 3759 -528
294 -1172 429 -1789 376z m589 -1058 c722 -147 1246 -737 1306 -1471 56 -689
-360 -1533 -1147 -2326 -278 -280 -365 -344 -468 -344 -103 0 -190 64 -468
344 -787 792 -1206 1643 -1146 2329 44 518 308 959 742 1241 200 131 422 209
712 250 76 11 374 -4 469 -23z"/>
<path d="M2955 4384 c-302 -64 -548 -306 -622 -612 -23 -98 -21 -285 5 -384
61 -227 217 -419 427 -522 135 -67 195 -80 360 -80 165 0 225 13 360 80 210
103 366 295 427 522 26 99 28 286 5 384 -75 310 -322 550 -629 612 -95 20
-240 19 -333 0z"/>
</g>
</svg>
